<?xml version="1.0" encoding="utf-8"?>
<!-- Generator: Adobe Illustrator 18.0.0, SVG Export Plug-In . SVG Version: 6.00 Build 0)  -->
<!DOCTYPE svg PUBLIC "-//W3C//DTD SVG 1.1//EN" "http://www.w3.org/Graphics/SVG/1.1/DTD/svg11.dtd">
<svg version="1.1" id="Layer_1" xmlns="http://www.w3.org/2000/svg" xmlns:xlink="http://www.w3.org/1999/xlink" x="0px" y="0px"
	 viewBox="0 0 64 64" enable-background="new 0 0 64 64" xml:space="preserve">
<g>
	<g id="XMLID_6_">
		<g>
			<g>
				<polygon fill="#FFD68D" points="26,28 26,28 1,53 1,11 				"/>
			</g>
			<g>
				<polygon fill="#FFD68D" points="63,11 63,53 38,28 38,28 				"/>
			</g>
			<g>
				<path fill="#FFCC66" d="M63,11L38,28l-3.7,2.5c-1.4,0.9-3.1,0.9-4.5,0L26,28L1,11H63z"/>
			</g>
			<g>
				<path fill="#F2BD5F" d="M63,53H1l25-25l0,0l3.7,2.5c1.4,0.9,3.1,0.9,4.5,0L38,28l0,0L63,53z"/>
			</g>
		</g>
		<path fill="#2D2D2D" d="M64,11C64,11,64,10.9,64,11c0-0.2,0-0.2-0.1-0.3c0-0.1,0-0.1-0.1-0.2c0,0,0-0.1,0-0.1c0,0,0,0-0.1-0.1
			c0-0.1-0.1-0.1-0.1-0.1c0,0-0.1-0.1-0.2-0.1c-0.1,0-0.1-0.1-0.2-0.1c-0.1,0-0.1,0-0.2,0c0,0-0.1,0-0.1,0H1c0,0-0.1,0-0.1,0
			c-0.1,0-0.1,0-0.2,0c-0.1,0-0.1,0-0.2,0.1c-0.1,0-0.1,0.1-0.2,0.1c-0.1,0-0.1,0.1-0.1,0.1c0,0,0,0-0.1,0.1c0,0,0,0.1,0,0.1
			c0,0.1-0.1,0.1-0.1,0.2c0,0.1,0,0.1,0,0.2c0,0,0,0.1,0,0.1v42c0,0.1,0,0.3,0.1,0.4c0.1,0.2,0.3,0.4,0.5,0.5C0.7,54,0.9,54,1,54h62
			c0.1,0,0.3,0,0.4-0.1c0.2-0.1,0.4-0.3,0.5-0.5C64,53.3,64,53.1,64,53V11z M2,12.9l22.5,15.2L2,50.6V12.9z M33.7,29.7
			c-1,0.7-2.4,0.7-3.4,0L4.3,12h55.5L33.7,29.7z M26.2,29.3l3,2.1c0.9,0.6,1.8,0.9,2.8,0.9s2-0.3,2.8-0.9l3-2.1L60.6,52H3.4
			L26.2,29.3z M39.5,28.1L62,12.9v37.7L39.5,28.1z"/>
	</g>
</g>
</svg>
